<?xml version="1.0" encoding="UTF-8" standalone="no"?> <svg id="Layer_1" data-name="Layer 1" xmlns="http://www.w3.org/2000/svg" viewBox="0 0 64 64"><defs><style>.cls-1{fill:#8d6e63;}.cls-2{fill:#6d4d42;}.cls-3{fill:#42a047;}.cls-4{fill:#378e43;}</style></defs><title>tree_13</title><path class="cls-1" d="M32,25V60H28V53H11a1,1,0,0,1-1-1V42a1,1,0,0,1,1-1h6a1,1,0,0,1,1,1v3H28V25Z"/><path class="cls-2" d="M54,39V49a1,1,0,0,1-1,1H36V60H32V24h4V42H46V39a1,1,0,0,1,1-1h6A1,1,0,0,1,54,39Z"/><path d="M45,13H40.94a9,9,0,0,0-17.88,0H19a6,6,0,0,0,0,12H45a6,6,0,0,0,0-12Zm2.84,8.83A4,4,0,0,1,45,23H19a4,4,0,0,1-2.84-6.83A4,4,0,0,1,19,15h5a1,1,0,0,0,1-1,7,7,0,0,1,14,0,1,1,0,0,0,1,1h5a4,4,0,0,1,2.84,6.83Z"/><path d="M18,29H10a4,4,0,0,0-4,4,3.92,3.92,0,0,0,.56,2A4,4,0,0,0,10,37h8a4,4,0,0,0,3.44-2A3.92,3.92,0,0,0,22,33,4,4,0,0,0,18,29Zm-8,6a2,2,0,0,1,0-4h8a2,2,0,0,1,0,4Z"/><path d="M54,34H46a4,4,0,0,1,0-8h8a4,4,0,0,1,0,8Zm-8-6a2,2,0,0,0,0,4h8a2,2,0,0,0,0-4Z"/><path class="cls-3" d="M32,5V25H19a6,6,0,1,1,0-12h4.06A9,9,0,0,1,32,5Z"/><path class="cls-4" d="M32,5V25H45a6,6,0,1,0,0-12H40.94A9,9,0,0,0,32,5Z"/><path class="cls-3" d="M14,29V43H7a4,4,0,0,1-3-1.36V36.36l.17-.19A4,4,0,0,1,6.56,35,3.92,3.92,0,0,1,6,33a4,4,0,0,1,4-4Z"/><path class="cls-4" d="M50,26V40h7a4,4,0,0,0,3-1.36V33.36l-.17-.19A4,4,0,0,0,57.44,32,3.92,3.92,0,0,0,58,30a4,4,0,0,0-4-4Z"/><path class="cls-4" d="M25,39a4,4,0,0,1-4,4H14V29h4a4,4,0,0,1,4,4,3.92,3.92,0,0,1-.56,2A4,4,0,0,1,25,39Z"/><path class="cls-3" d="M39,36a4,4,0,0,0,4,4h7V26H46a4,4,0,0,0-4,4,3.92,3.92,0,0,0,.56,2A4,4,0,0,0,39,36Z"/></svg>